<svg id="Layer_1" data-name="Layer 1" xmlns="http://www.w3.org/2000/svg" viewBox="0 0 88.32 77.96"><defs><style>.cls-1{fill:#e4e4e4;}.cls-2{font-size:25.22px;font-family:DancingScriptOT;}.cls-3{font-size:7.35px;font-family:Quicksand-Bold, Quicksand Bold;font-weight:700;letter-spacing:0.4em;}.cls-4{letter-spacing:0.36em;}</style></defs><rect class="cls-1" x="6.31" y="67.96" width="74.7" height="10" rx="5"/><text class="cls-2" transform="translate(0 62.33)">Blossom</text><text class="cls-3" transform="translate(22.8 75.36)">F<tspan class="cls-4" x="6.52" y="0">L</tspan><tspan x="12.64" y="0">ORIST</tspan></text><circle cx="11.57" cy="72.86" r="1.31"/><circle cx="74.99" cy="72.86" r="1.31"/><path d="M45.4,49.11a33.81,33.81,0,0,1-6.32-4.41,23.33,23.33,0,0,1-2.72-2.88A9.48,9.48,0,0,1,34.47,38a5.25,5.25,0,0,1-.07-1.26c0-.22.06-.44.1-.66s.09-.35.14-.53a7.4,7.4,0,0,1,1-2.1,3.88,3.88,0,0,1,2.28-1.64,4.33,4.33,0,0,1,2.69.28A10.67,10.67,0,0,1,44,34.64,18.09,18.09,0,0,1,46.42,38a9.63,9.63,0,0,1,.85,2,2.86,2.86,0,0,1,.06,1.61,1.59,1.59,0,0,1-.46.72,1.33,1.33,0,0,1-.41.25,1.43,1.43,0,0,1-.39.11,1.94,1.94,0,0,1-1-.12,3.12,3.12,0,0,1-1.86-2A5.34,5.34,0,0,1,43,38.31a9,9,0,0,1,4.2-6.72,12.06,12.06,0,0,1,3.65-1.49,9.25,9.25,0,0,1,4-.17,6.49,6.49,0,0,1,3.53,2.17,10.48,10.48,0,0,1,1.95,3.61,14.57,14.57,0,0,1,.29,8.13,8.3,8.3,0,0,1-.85,2.08,4.74,4.74,0,0,1-1.92,1.87,3.59,3.59,0,0,1-1.55.35,3.76,3.76,0,0,1-1.53-.33,3.2,3.2,0,0,1-1.32-1.1,3.74,3.74,0,0,1-.6-1.42,6.76,6.76,0,0,1,0-2.46,12.3,12.3,0,0,1,.54-2.09A19.11,19.11,0,0,1,55.11,37,17.35,17.35,0,0,1,60.76,31a6.84,6.84,0,0,1,2.3-.87,4.37,4.37,0,0,1,2.85.5A7.55,7.55,0,0,1,69,34.06a9.16,9.16,0,0,1,.62,4.36,15.45,15.45,0,0,1-.92,4,24.17,24.17,0,0,1-3.93,6.8A23.86,23.86,0,0,1,62.08,52a15.66,15.66,0,0,1-3.16,2.22.16.16,0,0,1-.21-.06.18.18,0,0,1,0-.2,21.89,21.89,0,0,0,4.8-5.63,25.17,25.17,0,0,0,3-6.64c.62-2.26.77-4.72-.11-6.47a4.48,4.48,0,0,0-2-2,1.13,1.13,0,0,0-.81-.09,3.67,3.67,0,0,0-1.2.52A11.78,11.78,0,0,0,60,35.9a20.83,20.83,0,0,0-3.61,5.92,6.35,6.35,0,0,0-.54,2.87c.07.34.1.36.2.43a.71.71,0,0,0,.31.09.6.6,0,0,0,.29,0A3.6,3.6,0,0,0,58,43.06a14.22,14.22,0,0,0,.39-6.85A8.58,8.58,0,0,0,57.17,33a4.81,4.81,0,0,0-2.63-2A7.19,7.19,0,0,0,51,31a8.92,8.92,0,0,0-3.32,1.37,6.81,6.81,0,0,0-3.06,5.92A3.71,3.71,0,0,0,45,39.79a1,1,0,0,0,.72.62c.06,0,.13,0,0,0a.72.72,0,0,0-.38.18.73.73,0,0,0-.22.31c0,.23,0-.06-.13-.25a7.63,7.63,0,0,0-.76-1.42,15.43,15.43,0,0,0-2.17-2.72,7.92,7.92,0,0,0-2.56-1.92,1.8,1.8,0,0,0-1-.18,1.18,1.18,0,0,0-.71.54,4.5,4.5,0,0,0-.63,1.32c0,.13-.09.28-.11.38a2.3,2.3,0,0,1-.06.28,4.41,4.41,0,0,0,0,.63,7.38,7.38,0,0,0,1.23,3,22.48,22.48,0,0,0,2.16,2.9c1.6,1.88,3.38,3.67,5.2,5.43h0a.16.16,0,0,1,0,.22A.15.15,0,0,1,45.4,49.11Z" transform="translate(-5.35 -12.49)"/><path d="M48.4,30a3.68,3.68,0,0,1-1.6-1.09,4.58,4.58,0,0,1-.91-1.59,4,4,0,0,1-.15-1.93,2.11,2.11,0,0,1,1.2-1.68,6.05,6.05,0,0,0,.6,1.56,13.53,13.53,0,0,1,.53,1.35,8.48,8.48,0,0,1,.34,1.52A6.44,6.44,0,0,1,48.4,30Z" transform="translate(-5.35 -12.49)"/><path d="M58.34,24.11a3.66,3.66,0,0,1,0,1.94,4.45,4.45,0,0,1-.77,1.65,4,4,0,0,1-1.5,1.24,2.08,2.08,0,0,1-2.06,0A6.77,6.77,0,0,0,55,27.54a11.39,11.39,0,0,1,.79-1.21,8.6,8.6,0,0,1,1.05-1.16A6,6,0,0,1,58.34,24.11Z" transform="translate(-5.35 -12.49)"/><path d="M51.27,28.47a5.28,5.28,0,0,1-.85-1.67,6.19,6.19,0,0,1-.28-1.62,6.55,6.55,0,0,1,.1-1.59,12.33,12.33,0,0,1,.5-1.75A3,3,0,0,1,52,23.34a4.89,4.89,0,0,1,.4,1.73,5.37,5.37,0,0,1-.21,1.73A4.15,4.15,0,0,1,51.27,28.47Z" transform="translate(-5.35 -12.49)"/><path d="M73.29,34.86a23.51,23.51,0,0,1-5.61,15.39,19.88,19.88,0,0,1-6.93,5,20.19,20.19,0,0,1-8.47,1.61,20.88,20.88,0,0,1-8.28-2,23.59,23.59,0,0,1-6.79-4.92,23.26,23.26,0,0,1-6.56-15.08,20.91,20.91,0,0,1,5.94-15.69,22.37,22.37,0,0,1,7.15-5,21.25,21.25,0,0,1,17,.11,19.84,19.84,0,0,1,6.91,5.12A23.41,23.41,0,0,1,73.29,34.86Zm-.28,0A18.34,18.34,0,0,0,71.2,27a19.7,19.7,0,0,0-4.82-6.26,21.6,21.6,0,0,0-14.1-5.26,20.18,20.18,0,0,0-13.8,5.54A20.89,20.89,0,0,0,32.2,34.86a19.29,19.29,0,0,0,1.26,7.8A18.32,18.32,0,0,0,44.6,53.41a21.07,21.07,0,0,0,7.68,1.13A22.81,22.81,0,0,0,66.4,49a19.56,19.56,0,0,0,4.82-6.27A18.12,18.12,0,0,0,73,34.86Z" transform="translate(-5.35 -12.49)"/></svg>